<svg width="640" height="180" viewBox="0 0 640 180" fill="none" xmlns="http://www.w3.org/2000/svg">
  <defs>
    <linearGradient id="markGradient" x1="12" y1="8" x2="140" y2="144" gradientUnits="userSpaceOnUse">
      <stop stop-color="#FF8A00"/>
      <stop offset="1" stop-color="#E24A11"/>
    </linearGradient>
    <linearGradient id="steamGradient" x1="68" y1="26" x2="108" y2="62" gradientUnits="userSpaceOnUse">
      <stop stop-color="#FFF6E8"/>
      <stop offset="1" stop-color="#FFD8A8"/>
    </linearGradient>
  </defs>

  <g>
    <rect x="12" y="12" width="132" height="132" rx="32" fill="url(#markGradient)"/>
    <path d="M46 92C46 73.2223 61.2223 58 80 58H103C103 76.7777 87.7777 92 69 92H46Z" fill="#FFF6E8"/>
    <path d="M36 92H108C108 105.255 97.2548 116 84 116H60C46.7452 116 36 105.255 36 92Z" fill="#2D1A10"/>
    <circle cx="55" cy="104" r="3.8" fill="#FF8A00"/>
    <circle cx="72" cy="104" r="3.8" fill="#FF8A00"/>
    <circle cx="89" cy="104" r="3.8" fill="#FF8A00"/>
    <path d="M67 47C67 41.4772 71.4772 37 77 37C77 42.5228 72.5228 47 67 47Z" fill="url(#steamGradient)"/>
    <path d="M83 55C83 48.3726 88.3726 43 95 43C95 49.6274 89.6274 55 83 55Z" fill="url(#steamGradient)"/>
  </g>

  <g fill="#1F2937">
    <path d="M188.397 121L162.169 49.8978H183.655L200.892 102.567H201.86L219.096 49.8978H240.444L214.216 121H188.397Z"/>
    <path d="M256.815 121V49.8978H302.849V66.3125H276.914V77.5476H300.755V93.9624H276.914V104.585H303.258V121H256.815Z"/>
    <path d="M351.526 121L339.467 97.6403H334.079V121H314.048V49.8978H344.788C361.546 49.8978 372.101 58.6832 372.101 73.9018C372.101 83.6145 367.501 90.5817 359.479 94.1455L374.175 121H351.526ZM334.079 82.2188H342.21C348.638 82.2188 352.096 79.3338 352.096 74.0036C352.096 68.5632 348.638 65.7895 342.21 65.7895H334.079V82.2188Z"/>
    <path d="M378.378 121L406.495 49.8978H430.954L459.071 121H438.494L433.659 107.497H403.79L398.955 121H378.378ZM408.655 93.1274H428.793L418.769 65.0828H418.68L408.655 93.1274Z"/>
    <path d="M488.968 122.843C467.785 122.843 452.063 108.436 452.063 85.4499C452.063 62.2434 467.949 48.0557 489.042 48.0557C504.252 48.0557 516.009 55.0843 520.219 67.0637L501.6 72.1749C499.385 67.0099 495.245 64.0913 489.223 64.0913C479.867 64.0913 472.504 71.2659 472.504 85.4499C472.504 99.6338 479.867 106.808 489.223 106.808C495.423 106.808 500.256 103.916 502.112 98.2506L520.894 102.567C516.639 115.493 504.53 122.843 488.968 122.843Z"/>
    <path d="M532.273 121V49.8978H578.307V66.3125H552.371V77.5476H576.212V93.9624H552.371V104.585H578.715V121H532.273Z"/>
    <path d="M589.336 121V49.8978H622.836C637.032 49.8978 646.433 57.0389 646.433 68.9772C646.433 77.1075 641.833 82.6548 634.279 85.109V85.9712C644.012 88.1107 649.379 94.1721 649.379 103.165C649.379 114.711 640.091 121 625.161 121H589.336ZM608.848 78.0409H620.258C625.171 78.0409 628.093 75.7129 628.093 71.7528C628.093 67.9344 625.171 65.5152 620.258 65.5152H608.848V78.0409ZM608.848 105.288H622.56C628.176 105.288 631.39 102.742 631.39 98.3043C631.39 93.9624 628.176 91.3235 622.56 91.3235H608.848V105.288Z"/>
  </g>
</svg>
