<svg width="256" height="256" viewBox="0 0 256 256" fill="none" xmlns="http://www.w3.org/2000/svg">
  <defs>
    <linearGradient id="bg" x1="32" y1="24" x2="224" y2="232" gradientUnits="userSpaceOnUse">
      <stop stop-color="#FF8A00"/>
      <stop offset="1" stop-color="#E24A11"/>
    </linearGradient>
    <linearGradient id="steam" x1="110" y1="56" x2="170" y2="110" gradientUnits="userSpaceOnUse">
      <stop stop-color="#FFF6E8"/>
      <stop offset="1" stop-color="#FFD8A8"/>
    </linearGradient>
  </defs>
  <rect x="20" y="20" width="216" height="216" rx="56" fill="url(#bg)"/>
  <path d="M76 148C76 117.072 101.072 92 132 92H170C170 122.928 144.928 148 114 148H76Z" fill="#FFF6E8"/>
  <path d="M62 148H178C178 170.091 160.091 188 138 188H102C79.9086 188 62 170.091 62 148Z" fill="#2D1A10"/>
  <circle cx="92" cy="168" r="7" fill="#FF8A00"/>
  <circle cx="126" cy="168" r="7" fill="#FF8A00"/>
  <circle cx="160" cy="168" r="7" fill="#FF8A00"/>
  <path d="M112 74C112 65.1634 119.163 58 128 58C128 66.8366 120.837 74 112 74Z" fill="url(#steam)"/>
  <path d="M138 86C138 76.0589 146.059 68 156 68C156 77.9411 147.941 86 138 86Z" fill="url(#steam)"/>
</svg>
